<?xml version="1.0" encoding="utf-8"?>
<!-- Generator: Adobe Illustrator 24.1.2, SVG Export Plug-In . SVG Version: 6.00 Build 0)  -->
<svg version="1.1" id="Capa_1" xmlns="http://www.w3.org/2000/svg" xmlns:xlink="http://www.w3.org/1999/xlink" x="0px" y="0px"
	 viewBox="0 0 477.2 477.2" style="enable-background:new 0 0 477.2 477.2;" xml:space="preserve">
<style type="text/css">
	.st0{fill:#FFFFFF;}
</style>
<g>
	<path d="M317,238.6L101.5,454.1c-5.3,5.3-5.3,13.8,0,19.1c5.3,5.3,13.8,5.3,19.1,0l225.1-225.1c5.3-5.3,5.3-13.8,0-19.1L120.6,4
		c-2.6-2.6-6.1-4-9.5-4s-6.9,1.3-9.5,4c-5.3,5.3-5.3,13.8,0,19.1L317,238.6z"/>
</g>
<g>
	<path class="st0" d="M332,238.6L116.5,454.1c-5.3,5.3-5.3,13.8,0,19.1c5.3,5.3,13.8,5.3,19.1,0l225.1-225.1
		c5.3-5.3,5.3-13.8,0-19.1L135.6,4c-2.6-2.6-6.1-4-9.5-4s-6.9,1.3-9.5,4c-5.3,5.3-5.3,13.8,0,19.1L332,238.6z"/>
</g>
</svg>
